<?xml version="1.0" standalone="no"?>
<!DOCTYPE svg PUBLIC "-//W3C//DTD SVG 20010904//EN"
 "http://www.w3.org/TR/2001/REC-SVG-20010904/DTD/svg10.dtd">
<svg version="1.0" xmlns="http://www.w3.org/2000/svg"
 width="1000.000000pt" height="1000.000000pt" viewBox="0 0 1000.000000 1000.000000"
 preserveAspectRatio="xMidYMid meet">

<g transform="translate(0.000000,1000.000000) scale(0.100000,-0.100000)"
fill="#000000" stroke="none">
<path d="M4725 7784 c-22 -3 -109 -16 -193 -30 -1044 -172 -1914 -944 -2213
-1962 -124 -425 -145 -912 -58 -1347 208 -1041 1013 -1890 2039 -2150 243 -62
436 -85 700 -85 488 0 935 113 1346 341 809 448 1340 1253 1434 2173 16 155 8
542 -15 686 -48 307 -132 571 -266 840 -372 744 -1065 1289 -1874 1475 -205
47 -304 57 -585 60 -151 2 -293 1 -315 -1z m675 -434 c979 -173 1748 -925
1939 -1895 34 -174 44 -312 38 -522 -13 -507 -171 -961 -475 -1366 -100 -134
-340 -374 -472 -471 -317 -235 -656 -380 -1045 -447 -154 -27 -470 -37 -628
-19 -566 61 -1067 305 -1462 711 -343 353 -560 777 -645 1259 -28 158 -38 476
-21 641 47 456 233 905 524 1264 90 112 294 308 407 392 346 259 748 422 1165
472 44 5 186 8 315 6 188 -2 260 -7 360 -25z"/>
<path d="M6200 6009 c-35 -15 -214 -189 -782 -757 l-738 -737 -322 322 c-216
215 -335 327 -360 338 -52 21 -140 19 -186 -4 -44 -23 -88 -64 -110 -106 -24
-45 -22 -150 5 -200 12 -23 200 -218 440 -456 450 -447 440 -439 544 -439 24
0 62 9 84 19 27 13 304 283 882 862 771 773 842 848 853 889 50 190 -133 349
-310 269z"/>
<path d="M160 2335 c0 -25 5 -45 10 -45 6 0 10 14 10 31 0 27 3 30 23 23 12
-3 34 -13 49 -20 31 -16 38 -17 38 -5 0 7 -108 61 -124 61 -3 0 -6 -20 -6 -45z"/>
<path d="M226 2271 c-3 -4 -17 -6 -30 -4 -20 4 -26 0 -31 -20 -7 -26 0 -47 14
-47 5 0 6 11 3 25 -3 18 0 25 12 25 9 0 16 -7 16 -15 0 -22 17 -18 23 6 8 29
32 18 32 -14 -1 -30 12 -36 22 -11 14 37 -41 87 -61 55z"/>
<path d="M160 2146 c0 -24 5 -36 14 -36 8 0 20 -2 28 -5 8 -3 18 6 25 26 14
37 38 34 38 -4 -1 -15 3 -27 7 -27 16 0 21 31 9 56 -15 33 -51 29 -69 -9 -14
-29 -32 -28 -32 3 0 10 -4 22 -10 25 -6 4 -10 -8 -10 -29z"/>
<path d="M177 2062 c-22 -24 -21 -35 1 -55 25 -22 75 -21 95 1 23 25 21 38 -5
56 -30 21 -71 20 -91 -2z m77 -8 c24 -9 19 -33 -8 -40 -31 -7 -66 3 -66 21 0
21 41 32 74 19z"/>
<path d="M177 1952 c-22 -24 -21 -35 1 -55 25 -22 75 -21 95 1 23 25 21 38 -5
56 -30 21 -71 20 -91 -2z m77 -8 c24 -9 19 -33 -8 -40 -31 -7 -66 3 -66 21 0
21 41 32 74 19z"/>
<path d="M160 1826 c0 -24 5 -36 14 -36 8 0 20 -2 28 -5 8 -3 18 6 25 26 14
37 38 34 38 -4 -1 -15 3 -27 7 -27 16 0 21 31 9 56 -15 33 -51 29 -69 -9 -14
-29 -32 -28 -32 3 0 10 -4 22 -10 25 -6 4 -10 -8 -10 -29z"/>
<path d="M226 1751 c-3 -4 -17 -6 -30 -4 -20 4 -26 0 -31 -20 -7 -26 0 -47 14
-47 5 0 6 11 3 25 -3 18 0 25 12 25 9 0 16 -7 16 -15 0 -22 17 -18 23 6 8 29
32 18 32 -14 -1 -30 12 -36 22 -11 14 37 -41 87 -61 55z"/>
<path d="M235 1650 c-4 -6 -16 -8 -26 -5 -35 11 -69 -42 -39 -60 20 -12 93
-15 107 -4 18 15 16 44 -3 63 -18 19 -30 20 -39 6z m-27 -37 c-4 -22 -22 -20
-26 1 -2 10 3 16 13 16 10 0 15 -7 13 -17z m60 0 c-2 -10 -10 -18 -18 -18 -8
0 -16 8 -18 18 -2 12 3 17 18 17 15 0 20 -5 18 -17z"/>
<path d="M270 1523 l0 -27 -20 22 c-29 31 -78 30 -86 -2 -6 -25 1 -46 15 -46
4 0 7 10 7 23 -1 32 34 34 64 2 32 -34 40 -32 40 15 0 22 -4 40 -10 40 -5 0
-10 -12 -10 -27z"/>
<path d="M196 1451 c-4 -6 -12 -9 -17 -6 -5 4 -9 2 -9 -4 0 -5 6 -12 13 -15 9
-5 9 -7 0 -12 -10 -4 -9 -9 2 -20 8 -9 20 -12 26 -8 6 3 14 1 18 -5 5 -8 15
-9 31 -3 19 7 21 10 7 15 -23 9 -22 28 1 20 12 -4 11 0 -7 17 -17 17 -25 20
-31 10 -6 -9 -10 -8 -17 5 -7 12 -12 14 -17 6z m39 -41 c-3 -5 -10 -10 -16
-10 -5 0 -9 5 -9 10 0 6 7 10 16 10 8 0 12 -4 9 -10z"/>
<path d="M140 1280 c0 -6 38 -10 95 -10 57 0 95 4 95 10 0 6 -38 10 -95 10
-57 0 -95 -4 -95 -10z"/>
<path d="M261 1189 c-22 -18 -25 -19 -42 -3 -11 10 -22 14 -27 10 -4 -4 4 -16
17 -27 l23 -19 -46 0 c-34 0 -46 -4 -46 -15 0 -12 15 -15 75 -15 60 0 75 3 75
15 0 9 -9 15 -22 15 l-23 0 24 19 c13 10 22 23 20 29 -2 6 -14 3 -28 -9z"/>
<path d="M190 1081 c0 -27 27 -51 55 -51 24 0 45 25 45 54 0 25 -18 19 -22 -6
-2 -17 -10 -23 -28 -23 -18 0 -26 6 -28 23 -4 27 -22 30 -22 3z"/>
<path d="M206 994 c-19 -18 -20 -28 -6 -55 21 -39 90 -16 90 30 0 16 -30 41
-50 41 -10 0 -26 -7 -34 -16z m59 -29 c0 -22 -31 -33 -47 -17 -17 17 -1 44 24
40 15 -2 23 -10 23 -23z"/>
<path d="M190 900 c0 -5 -7 -10 -15 -10 -8 0 -15 -4 -15 -10 0 -5 6 -10 14
-10 8 0 17 -6 20 -12 5 -10 7 -10 12 0 3 6 21 12 40 12 34 0 56 22 39 38 -4 4
-10 1 -12 -5 -5 -15 -63 -18 -63 -3 0 6 -4 10 -10 10 -5 0 -10 -4 -10 -10z"/>
<path d="M212 810 c-19 -34 -35 -34 -40 -2 -5 30 -22 28 -22 -2 0 -50 54 -61
77 -16 17 34 38 32 38 -3 -1 -32 18 -31 23 2 8 53 -49 69 -76 21z"/>
<path d="M200 675 c-22 -26 3 -65 40 -65 35 0 58 36 45 67 -7 16 -9 15 -13 -7
-6 -40 -22 -48 -22 -12 0 25 -4 32 -19 32 -10 0 -24 -7 -31 -15z m30 -26 c0
-11 -4 -17 -10 -14 -5 3 -10 13 -10 21 0 8 5 14 10 14 6 0 10 -9 10 -21z"/>
<path d="M197 561 c-8 -22 -18 -31 -34 -31 -14 0 -23 -6 -23 -15 0 -23 138
-22 147 2 10 26 -19 68 -50 71 -24 3 -30 -2 -40 -27z m57 3 c28 -11 18 -34
-14 -34 -18 0 -30 5 -30 13 0 25 15 32 44 21z"/>
<path d="M206 464 c-19 -18 -20 -28 -6 -55 21 -39 90 -16 90 30 0 16 -30 41
-50 41 -10 0 -26 -7 -34 -16z m59 -29 c0 -22 -31 -33 -47 -17 -17 17 -1 44 24
40 15 -2 23 -10 23 -23z"/>
<path d="M140 350 c0 -5 11 -10 25 -10 15 0 25 -6 25 -14 0 -45 73 -62 92 -22
20 45 6 56 -72 56 -40 0 -70 -4 -70 -10z m128 -27 c-2 -12 -12 -18 -28 -18
-16 0 -26 6 -28 18 -3 13 3 17 28 17 25 0 31 -4 28 -17z"/>
<path d="M220 246 c-36 -13 -66 -29 -68 -37 -1 -9 20 -21 68 -35 38 -12 70
-17 70 -12 0 6 -9 12 -20 15 -14 4 -20 14 -20 34 0 22 5 29 20 29 11 0 20 7
20 15 0 8 -1 15 -2 14 -2 0 -32 -11 -68 -23z m8 -51 c-7 -7 -48 7 -48 15 0 15
45 16 48 2 2 -8 2 -15 0 -17z"/>
</g>
</svg>
